<svg width="311" height="111" viewBox="0 0 311 111" fill="none" xmlns="http://www.w3.org/2000/svg">
<path fill-rule="evenodd" clip-rule="evenodd" d="M29.508 0.738114L50.7423 12.9835C52.4489 13.9676 53.5002 15.7864 53.5002 17.7547V42.2455C53.5002 44.2138 52.4489 46.0326 50.7423 47.0168L29.508 59.2621C28.7012 59.7274 27.806 59.9727 26.9059 59.998L26.802 60H26.6982C25.7632 59.9912 24.83 59.7453 23.9922 59.2621L2.75789 47.0168C1.0513 46.0326 0 44.2138 0 42.2455V17.7547C0 15.7864 1.0513 13.9676 2.75789 12.9835L23.9922 0.738114C25.6988 -0.246038 27.8014 -0.246038 29.508 0.738114ZM25.5742 9.36966L25.5012 9.41014L9.52445 18.6235C8.75033 19.07 8.27335 19.8956 8.27335 20.7892V39.2104C8.27335 40.1041 8.75033 40.9297 9.52445 41.3762L25.5012 50.5896C26.2741 51.0353 27.2261 51.0353 27.999 50.5895L43.9752 41.3762C44.7493 40.9297 45.2263 40.1041 45.2263 39.2105V20.7892C45.2263 19.8956 44.7493 19.07 43.9752 18.6235L27.999 9.41016C27.2502 8.97833 26.3335 8.96483 25.5742 9.36966ZM26.8107 20.0001C30.1579 20.0001 32.8713 22.6679 32.8713 25.9587C32.8713 28.0246 31.802 29.8449 30.1779 30.9138V36.6329C30.1779 38.4926 28.6704 40.0002 26.8107 40.0002C24.951 40.0002 23.4435 38.4926 23.4435 36.6329V30.9138C21.8194 29.8449 20.7501 28.0246 20.7501 25.9587C20.7501 22.6679 23.4635 20.0001 26.8107 20.0001Z" fill="#D5D1F1"/>
<path d="M301.912 54.1254V5.00004H310.997V54.1254H301.912Z" fill="#D5D1F1"/>
<path d="M274.15 55.0002C264.527 55.0002 256.855 46.8575 256.855 36.7633C256.855 26.669 264.527 18.3917 274.15 18.3917C280.207 18.3917 283.369 20.8816 285.254 24.6502V19.132H294.271V54.1254H285.456V48.4053C283.571 52.3757 280.409 55.0002 274.15 55.0002ZM265.94 36.696C265.94 42.0123 269.843 46.7902 275.631 46.7902C281.62 46.7902 285.456 42.2142 285.456 36.7633C285.456 31.3124 281.62 26.6017 275.631 26.6017C269.843 26.6017 265.94 31.2451 265.94 36.696Z" fill="#D5D1F1"/>
<path d="M235.315 54.1254V19.132H244.13V25.7942C245.342 20.7471 248.908 17.988 254.965 18.3244V26.8709H253.686C248.437 26.8709 244.399 30.3703 244.399 36.2249V54.1254H235.315Z" fill="#D5D1F1"/>
<path d="M211.317 55.0002C200.483 55.0002 193.215 46.7902 193.215 36.696C193.215 26.6017 200.819 18.2571 211.317 18.2571C221.815 18.2571 229.083 26.6017 229.083 36.696C229.083 37.7054 229.016 38.7821 228.814 39.9261H202.636C203.645 44.0311 206.741 46.9248 211.317 46.9248C215.22 46.9248 218.248 44.906 219.864 42.2142L226.93 47.5305C224.103 51.9047 218.248 55.0002 211.317 55.0002ZM202.636 33.1293H219.931C218.921 29.2262 215.624 26.0634 211.182 26.0634C206.876 26.0634 203.645 28.9571 202.636 33.1293Z" fill="#D5D1F1"/>
<path d="M175.824 55.0002C169.902 55.0002 165.124 52.9814 161.288 48.8764L167.412 43.2909C169.969 46.1846 172.661 47.5978 175.622 47.5978C178.718 47.5978 180.467 46.05 180.467 43.9638C180.467 42.1469 179.593 41.1375 174.074 39.8589C164.72 37.6381 163.307 33.3985 163.307 28.9571C163.307 22.8332 168.152 18.2571 176.362 18.2571C182.015 18.2571 185.784 19.6703 189.35 24.3137L182.755 29.3608C181.073 26.669 178.92 25.5923 176.564 25.5923C174.074 25.5923 172.19 26.5344 172.19 28.6879C172.19 29.8992 172.728 30.9759 176.901 32.0526C187.062 34.6771 189.418 38.4457 189.418 43.6947C189.418 50.155 183.563 55.0002 175.824 55.0002Z" fill="#D5D1F1"/>
<path d="M144.468 55.0002C138.546 55.0002 133.768 52.9814 129.932 48.8764L136.056 43.2909C138.613 46.1846 141.305 47.5978 144.266 47.5978C147.361 47.5978 149.111 46.05 149.111 43.9638C149.111 42.1469 148.236 41.1375 142.718 39.8589C133.364 37.6381 131.951 33.3985 131.951 28.9571C131.951 22.8332 136.796 18.2571 145.006 18.2571C150.659 18.2571 154.427 19.6703 157.994 24.3137L151.399 29.3608C149.717 26.669 147.563 25.5923 145.208 25.5923C142.718 25.5923 140.834 26.5344 140.834 28.6879C140.834 29.8992 141.372 30.9759 145.545 32.0526C155.706 34.6771 158.061 38.4457 158.061 43.6947C158.061 50.155 152.207 55.0002 144.468 55.0002Z" fill="#D5D1F1"/>
<path d="M109.478 55.0002C98.6433 55.0002 91.3755 46.7902 91.3755 36.696C91.3755 26.6017 98.9798 18.2571 109.478 18.2571C119.976 18.2571 127.244 26.6017 127.244 36.696C127.244 37.7054 127.176 38.7821 126.975 39.9261H100.797C101.806 44.0311 104.902 46.9248 109.478 46.9248C113.381 46.9248 116.409 44.906 118.024 42.2142L125.09 47.5305C122.264 51.9047 116.409 55.0002 109.478 55.0002ZM100.797 33.1293H118.092C117.082 29.2262 113.785 26.0634 109.343 26.0634C105.036 26.0634 101.806 28.9571 100.797 33.1293Z" fill="#D5D1F1"/>
<path d="M81.6127 54.1254C74.6814 54.1254 70.9128 50.8952 70.9128 43.2909V26.8709H66.0003V19.132H70.9128V12.066L79.9977 11.1239V19.132H87.4001V26.8709H79.9977V42.8198C79.9977 45.0406 81.0744 46.05 82.824 46.05H86.5926V54.1254H81.6127Z" fill="#D5D1F1"/>
<path d="M121.65 104V80.9H129.438C134.454 80.9 137.16 83.375 137.16 86.972C137.16 89.183 136.269 90.767 133.431 91.823C137.193 92.714 138.447 94.76 138.447 97.631C138.447 101.492 135.279 104 130.263 104H121.65ZM126.27 99.842H129.834C132.342 99.842 133.761 98.918 133.761 96.905C133.761 95.222 132.342 94.199 129.834 94.199H126.27V99.842ZM126.27 90.437H129.009C131.517 90.437 132.474 89.546 132.474 87.698C132.474 86.114 131.517 85.025 129.009 85.025H126.27V90.437ZM143.899 104V80.9H157.429V85.058H148.519V90.239H157.264V94.265H148.519V99.842H157.495V104H143.899ZM168.854 104V85.058H162.254V80.9H180.074V85.058H173.474V104H168.854ZM179.901 104L189.339 80.9H193.332L202.737 104H197.721L196.137 99.611H186.501L184.917 104H179.901ZM188.019 95.618H194.619L192.144 89.315C191.814 88.457 191.517 87.566 191.319 86.675C191.088 87.566 190.824 88.49 190.494 89.315L188.019 95.618Z" fill="#D5D1F1"/>
</svg>
