<svg width="576" height="187" viewBox="0 0 576 187" fill="none" xmlns="http://www.w3.org/2000/svg">
<path fill-rule="evenodd" clip-rule="evenodd" d="M54.652 1.36551L93.9802 24.0195C97.141 25.8401 99.0881 29.2049 99.0881 32.8463V78.1542C99.0881 81.7955 97.141 85.1603 93.9802 86.981L54.652 109.635C53.1578 110.496 51.4997 110.949 49.8327 110.996L49.6403 111H49.4479C47.7162 110.984 45.9878 110.529 44.4362 109.635L5.10791 86.981C1.94712 85.1603 0 81.7955 0 78.1542V32.8463C0 29.2049 1.94712 25.8401 5.10791 24.0195L44.4362 1.36551C47.5969 -0.455171 51.4912 -0.455171 54.652 1.36551ZM47.3661 17.3339L47.2309 17.4088L17.6403 34.4535C16.2065 35.2794 15.3231 36.8069 15.3231 38.4601V72.5393C15.3231 74.1925 16.2065 75.72 17.6403 76.5459L47.2309 93.5907C48.6625 94.4153 50.4256 94.4153 51.8572 93.5906L81.4469 76.5459C82.8806 75.72 83.764 74.1925 83.764 72.5394V38.4601C83.764 36.8069 82.8806 35.2794 81.4469 34.4535L51.8572 17.4088C50.4703 16.6099 48.7724 16.5849 47.3661 17.3339ZM49.6563 37.0001C55.8557 37.0001 60.8813 41.9355 60.8813 48.0236C60.8813 51.8455 58.9008 55.213 55.8928 57.1906V67.7709C55.8928 71.2113 53.1006 74.0003 49.6563 74.0003C46.212 74.0003 43.4199 71.2113 43.4199 67.7709V57.1906C40.4118 55.213 38.4314 51.8455 38.4314 48.0236C38.4314 41.9355 43.457 37.0001 49.6563 37.0001Z" fill="#ACB3B4"/>
<path d="M559.174 100.132V9.25004H576V100.132H559.174Z" fill="#ACB3B4"/>
<path d="M507.755 101.75C489.932 101.75 475.723 86.6864 475.723 68.012C475.723 49.3377 489.932 34.0247 507.755 34.0247C518.973 34.0247 524.831 38.631 528.32 45.6028V35.3941H545.022V100.132H528.694V89.5498C525.205 96.8951 519.347 101.75 507.755 101.75ZM492.549 67.8875C492.549 77.7227 499.778 86.5619 510.497 86.5619C521.59 86.5619 528.694 78.0962 528.694 68.012C528.694 57.9279 521.59 49.2132 510.497 49.2132C499.778 49.2132 492.549 57.8034 492.549 67.8875Z" fill="#ACB3B4"/>
<path d="M435.828 100.132V35.3941H452.155V47.7192C454.399 38.382 461.005 33.2777 472.222 33.9002V49.7112H469.854C460.132 49.7112 452.654 56.1849 452.654 67.0161V100.132H435.828Z" fill="#ACB3B4"/>
<path d="M391.382 101.75C371.315 101.75 357.854 86.5619 357.854 67.8876C357.854 49.2132 371.938 33.7757 391.382 33.7757C410.825 33.7757 424.286 49.2132 424.286 67.8876C424.286 69.755 424.162 71.7469 423.788 73.8633H375.304C377.173 81.4576 382.907 86.8109 391.382 86.8109C398.611 86.8109 404.22 83.076 407.211 78.0962L420.298 87.9314C415.063 96.0236 404.22 101.75 391.382 101.75ZM375.304 61.2893H407.336C405.466 54.0685 399.359 48.2172 391.133 48.2172C383.156 48.2172 377.173 53.5705 375.304 61.2893Z" fill="#ACB3B4"/>
<path d="M325.645 101.75C314.677 101.75 305.828 98.0155 298.723 90.4213L310.065 80.0881C314.801 85.4415 319.787 88.0559 325.271 88.0559C331.004 88.0559 334.245 85.1925 334.245 81.3331C334.245 77.9717 332.625 76.1043 322.404 73.7389C305.08 69.6305 302.462 61.7873 302.462 53.5705C302.462 42.2414 311.436 33.7757 326.642 33.7757C337.112 33.7757 344.091 36.3901 350.697 44.9803L338.483 54.3175C335.367 49.3377 331.378 47.3457 327.016 47.3457C322.404 47.3457 318.914 49.0887 318.914 53.0725C318.914 55.3135 319.912 57.3054 327.639 59.2973C346.459 64.1527 350.822 71.1244 350.822 80.8351C350.822 92.7867 339.978 101.75 325.645 101.75Z" fill="#ACB3B4"/>
<path d="M267.57 101.75C256.602 101.75 247.752 98.0155 240.648 90.4213L251.99 80.0881C256.726 85.4415 261.712 88.0559 267.196 88.0559C272.929 88.0559 276.17 85.1925 276.17 81.3331C276.17 77.9717 274.55 76.1043 264.329 73.7389C247.005 69.6305 244.387 61.7873 244.387 53.5705C244.387 42.2414 253.361 33.7757 268.567 33.7757C279.036 33.7757 286.016 36.3901 292.622 44.9803L280.407 54.3175C277.292 49.3377 273.303 47.3457 268.941 47.3457C264.329 47.3457 260.839 49.0887 260.839 53.0725C260.839 55.3135 261.836 57.3054 269.564 59.2973C288.384 64.1527 292.747 71.1244 292.747 80.8351C292.747 92.7867 281.903 101.75 267.57 101.75Z" fill="#ACB3B4"/>
<path d="M202.765 101.75C182.698 101.75 169.237 86.5619 169.237 67.8876C169.237 49.2132 183.321 33.7757 202.765 33.7757C222.208 33.7757 235.669 49.2132 235.669 67.8876C235.669 69.755 235.544 71.7469 235.17 73.8633H186.686C188.556 81.4576 194.289 86.8109 202.765 86.8109C209.994 86.8109 215.602 83.076 218.594 78.0962L231.681 87.9314C226.446 96.0236 215.602 101.75 202.765 101.75ZM186.686 61.2893H218.718C216.849 54.0685 210.741 48.2172 202.515 48.2172C194.539 48.2172 188.556 53.5705 186.686 61.2893Z" fill="#ACB3B4"/>
<path d="M151.156 100.132C138.318 100.132 131.338 94.1562 131.338 80.0882V49.7112H122.24V35.3941H131.338V22.3221L148.164 20.5791V35.3941H161.874V49.7112H148.164V79.2167C148.164 83.325 150.158 85.1925 153.399 85.1925H160.379V100.132H151.156Z" fill="#ACB3B4"/>
<path d="M193 187V138H209.52C220.16 138 225.9 143.25 225.9 150.88C225.9 155.57 224.01 158.93 217.99 161.17C225.97 163.06 228.63 167.4 228.63 173.49C228.63 181.68 221.91 187 211.27 187H193ZM202.8 178.18H210.36C215.68 178.18 218.69 176.22 218.69 171.95C218.69 168.38 215.68 166.21 210.36 166.21H202.8V178.18ZM202.8 158.23H208.61C213.93 158.23 215.96 156.34 215.96 152.42C215.96 149.06 213.93 146.75 208.61 146.75H202.8V158.23Z" fill="#ACB3B4"/>
<path d="M243.695 187V138H272.395V146.82H253.495V157.81H272.045V166.35H253.495V178.18H272.535V187H243.695Z" fill="#ACB3B4"/>
<path d="M300.13 187V146.82H286.13V138H323.93V146.82H309.93V187H300.13Z" fill="#ACB3B4"/>
<path d="M327.063 187L347.083 138H355.553L375.503 187H364.863L361.503 177.69H341.063L337.703 187H327.063ZM344.283 169.22H358.283L353.033 155.85C352.333 154.03 351.703 152.14 351.283 150.25C350.793 152.14 350.233 154.1 349.533 155.85L344.283 169.22Z" fill="#ACB3B4"/>
</svg>
