<svg width="500" height="500" viewBox="0 0 500 500" fill="none" xmlns="http://www.w3.org/2000/svg">
<path d="M0 100C0 44.7715 44.7715 0 100 0H400C455.228 0 500 44.7715 500 100V400C500 455.228 455.228 500 400 500H100C44.7715 500 0 455.228 0 400V100Z" fill="#F6F7F7"/>
<path fill-rule="evenodd" clip-rule="evenodd" d="M268.72 54.9208L410.282 136.557C421.659 143.118 428.668 155.243 428.668 168.365V331.637C428.668 344.759 421.659 356.884 410.282 363.445L268.72 445.081C263.342 448.182 257.373 449.818 251.373 449.987L250.68 450H249.988C243.755 449.941 237.533 448.302 231.948 445.081L90.3859 363.445C79.0087 356.884 72 344.759 72 331.637V168.365C72 155.243 79.0087 143.118 90.3859 136.557L231.948 54.9208C243.325 48.3597 257.343 48.3597 268.72 54.9208ZM242.494 112.464L242.008 112.734L135.496 174.157C130.336 177.133 127.156 182.637 127.156 188.595V311.403C127.156 317.36 130.336 322.865 135.496 325.841L242.008 387.264C247.161 390.235 253.507 390.235 258.66 387.264L365.168 325.841C370.329 322.865 373.509 317.361 373.509 311.403V188.595C373.509 182.637 370.329 177.133 365.168 174.157L258.66 112.734C253.668 109.856 247.556 109.766 242.494 112.464ZM250.738 183.334C273.053 183.334 291.142 201.119 291.142 223.058C291.142 236.831 284.014 248.966 273.186 256.092V294.22C273.186 306.617 263.136 316.668 250.738 316.668C238.34 316.668 228.29 306.617 228.29 294.22V256.092C217.463 248.966 210.334 236.831 210.334 223.058C210.334 201.119 228.423 183.334 250.738 183.334Z" fill="#010C0F"/>
</svg>
