<svg width="1244" height="240" viewBox="0 0 1244 240" fill="none" xmlns="http://www.w3.org/2000/svg">
<path fill-rule="evenodd" clip-rule="evenodd" d="M118.032 2.95245L202.968 51.9338C209.795 55.8704 214 63.1455 214 71.0187V168.981C214 176.855 209.795 184.13 202.968 188.066L118.032 237.048C114.805 238.908 111.224 239.89 107.623 239.991L107.208 239.999H106.792C103.052 239.964 99.3196 238.98 95.9685 237.048L11.0315 188.066C4.20519 184.13 0 176.855 0 168.981V71.0187C0 63.1455 4.20519 55.8704 11.0315 51.9338L95.9685 2.95245C102.795 -0.984149 111.205 -0.984149 118.032 2.95245ZM102.296 37.4785L102.004 37.6404L38.0976 74.4939C35.0012 76.2795 33.0933 79.5822 33.0933 83.1566V156.841C33.0933 160.416 35.0012 163.718 38.0976 165.504L102.004 202.357C105.096 204.14 108.904 204.14 111.996 202.357L175.9 165.504C178.997 163.718 180.905 160.416 180.905 156.841V83.1565C180.905 79.5821 178.997 76.2795 175.9 74.4938L111.996 37.6405C109 35.9132 105.333 35.8592 102.296 37.4785ZM107.242 80C120.631 80 131.485 90.6711 131.485 103.834C131.485 112.098 127.208 119.379 120.711 123.655V146.531C120.711 153.97 114.681 160 107.242 160C99.8038 160 93.7736 153.97 93.7736 146.531V123.655C87.2772 119.379 83 112.098 83 103.834C83 90.6711 93.8537 80 107.242 80Z" fill="#010C0F"/>
<path d="M1207.64 216.501V20H1243.98V216.501H1207.64Z" fill="black"/>
<path d="M1096.6 220C1058.1 220 1027.42 187.429 1027.42 147.052C1027.42 106.676 1058.1 73.5666 1096.6 73.5666C1120.82 73.5666 1133.47 83.5262 1141.01 98.6002V76.5275H1177.08V216.501H1141.82V193.62C1134.28 209.502 1121.63 220 1096.6 220ZM1063.76 146.783C1063.76 168.048 1079.37 187.16 1102.52 187.16C1126.47 187.16 1141.82 168.856 1141.82 147.052C1141.82 125.249 1126.47 106.406 1102.52 106.406C1079.37 106.406 1063.76 124.98 1063.76 146.783Z" fill="black"/>
<path d="M941.254 216.501V76.5275H976.517V103.176C981.362 82.9879 995.629 71.9515 1019.85 73.2974V107.483H1014.74C993.744 107.483 977.594 121.48 977.594 144.899V216.501H941.254Z" fill="black"/>
<path d="M845.265 220C801.927 220 772.856 187.16 772.856 146.783C772.856 106.406 803.273 73.0283 845.265 73.0283C887.257 73.0283 916.328 106.406 916.328 146.783C916.328 150.821 916.059 155.128 915.251 159.704H810.541C814.578 176.124 826.961 187.699 845.265 187.699C860.877 187.699 872.99 179.623 879.451 168.856L907.714 190.121C896.409 207.618 872.99 220 845.265 220ZM810.541 132.517H879.72C875.682 116.904 862.492 104.253 844.726 104.253C827.499 104.253 814.578 115.828 810.541 132.517Z" fill="black"/>
<path d="M703.293 220C679.605 220 660.494 211.925 645.15 195.505L669.646 173.163C679.874 184.738 690.642 190.39 702.486 190.39C714.868 190.39 721.866 184.199 721.866 175.855C721.866 168.587 718.367 164.549 696.294 159.435C658.879 150.552 653.226 133.594 653.226 115.828C653.226 91.3324 672.607 73.0283 705.446 73.0283C728.058 73.0283 743.132 78.681 757.398 97.2544L731.018 117.443C724.289 106.676 715.675 102.369 706.254 102.369C696.294 102.369 688.757 106.137 688.757 114.751C688.757 119.596 690.911 123.903 707.6 128.21C748.246 138.708 757.667 153.782 757.667 174.778C757.667 200.619 734.249 220 703.293 220Z" fill="black"/>
<path d="M577.869 220C554.181 220 535.069 211.925 519.726 195.505L544.221 173.163C554.45 184.738 565.217 190.39 577.061 190.39C589.443 190.39 596.442 184.199 596.442 175.855C596.442 168.587 592.943 164.549 570.87 159.435C533.454 150.552 527.801 133.594 527.801 115.828C527.801 91.3324 547.182 73.0283 580.022 73.0283C602.633 73.0283 617.707 78.681 631.974 97.2544L605.594 117.443C598.865 106.676 590.251 102.369 580.83 102.369C570.87 102.369 563.333 106.137 563.333 114.751C563.333 119.596 565.487 123.903 582.176 128.21C622.822 138.708 632.243 153.782 632.243 174.778C632.243 200.619 608.824 220 577.869 220Z" fill="black"/>
<path d="M437.909 220C394.572 220 365.5 187.16 365.5 146.783C365.5 106.406 395.917 73.0283 437.909 73.0283C479.901 73.0283 508.973 106.406 508.973 146.783C508.973 150.821 508.703 155.128 507.896 159.704H403.185C407.223 176.124 419.605 187.699 437.909 187.699C453.522 187.699 465.635 179.623 472.095 168.856L500.359 190.121C489.053 207.618 465.635 220 437.909 220ZM403.185 132.517H472.364C468.327 116.904 455.137 104.253 437.371 104.253C420.144 104.253 407.223 115.828 403.185 132.517Z" fill="black"/>
<path d="M326.45 216.501C298.724 216.501 283.65 203.58 283.65 173.163V107.483H264V76.5276H283.65V48.2638L319.989 44.4953V76.5276H349.599V107.483H319.989V171.279C319.989 180.161 324.296 184.199 331.295 184.199H346.369V216.501H326.45Z" fill="black"/>
</svg>
