<svg width="260" height="50" viewBox="0 0 260 50" fill="none" xmlns="http://www.w3.org/2000/svg">
<path fill-rule="evenodd" clip-rule="evenodd" d="M24.59 0.615095L42.2853 10.8196C43.7074 11.6397 44.5835 13.1554 44.5835 14.7956V35.2046C44.5835 36.8448 43.7074 38.3605 42.2853 39.1806L24.59 49.3851C23.9177 49.7728 23.1717 49.9772 22.4216 49.9984L22.335 50H22.2485C21.4693 49.9927 20.6917 49.7877 19.9935 49.3851L2.29824 39.1806C0.876085 38.3605 0 36.8448 0 35.2046V14.7956C0 13.1554 0.876085 11.6397 2.29824 10.8196L19.9935 0.615095C21.4157 -0.205032 23.1678 -0.205032 24.59 0.615095ZM21.3118 7.80805L21.251 7.84178L7.93704 15.5196C7.29194 15.8916 6.89446 16.5797 6.89446 17.3244V32.6754C6.89446 33.4201 7.29194 34.1081 7.93704 34.4801L21.251 42.158C21.8951 42.5294 22.6884 42.5294 23.3325 42.1579L36.646 34.4801C37.2911 34.1081 37.6886 33.4201 37.6886 32.6754V17.3243C37.6886 16.5797 37.2911 15.8916 36.646 15.5196L23.3325 7.8418C22.7085 7.48194 21.9445 7.47069 21.3118 7.80805ZM22.3423 16.6667C25.1316 16.6667 27.3928 18.8899 27.3928 21.6323C27.3928 23.3538 26.5017 24.8707 25.1483 25.7615V30.5274C25.1483 32.0772 23.892 33.3335 22.3423 33.3335C20.7925 33.3335 19.5362 32.0772 19.5362 30.5274V25.7615C18.1828 24.8707 17.2917 23.3538 17.2917 21.6323C17.2917 18.8899 19.5529 16.6667 22.3423 16.6667Z" fill="white"/>
<path d="M251.594 45.1046V4.16675H259.164V45.1046H251.594Z" fill="white"/>
<path d="M228.458 45.8336C220.439 45.8336 214.046 39.048 214.046 30.6362C214.046 22.2243 220.439 15.3265 228.458 15.3265C233.506 15.3265 236.141 17.4015 237.711 20.5419V15.9434H245.226V45.1046H237.88V40.3379C236.309 43.6465 233.674 45.8336 228.458 45.8336ZM221.617 30.5801C221.617 35.0103 224.869 38.992 229.692 38.992C234.683 38.992 237.88 35.1786 237.88 30.6362C237.88 26.0937 234.683 22.1682 229.692 22.1682C224.869 22.1682 221.617 26.0377 221.617 30.5801Z" fill="white"/>
<path d="M196.095 45.1045V15.9434H203.442V21.4952C204.451 17.2893 207.423 14.99 212.471 15.2704V22.3925H211.405C207.031 22.3925 203.666 25.3086 203.666 30.1875V45.1045H196.095Z" fill="white"/>
<path d="M176.098 45.8336C167.069 45.8336 161.012 38.9919 161.012 30.5801C161.012 22.1682 167.349 15.2144 176.098 15.2144C184.846 15.2144 190.902 22.1682 190.902 30.5801C190.902 31.4212 190.846 32.3185 190.678 33.2719H168.863C169.705 36.6927 172.284 39.1041 176.098 39.1041C179.35 39.1041 181.874 37.4217 183.22 35.1786L189.108 39.6088C186.753 43.254 181.874 45.8336 176.098 45.8336ZM168.863 27.6079H183.276C182.435 24.3553 179.687 21.7195 175.985 21.7195C172.396 21.7195 169.705 24.1309 168.863 27.6079Z" fill="white"/>
<path d="M146.52 45.8336C141.585 45.8336 137.603 44.1512 134.407 40.7304L139.51 36.0758C141.641 38.4872 143.884 39.6649 146.352 39.6649C148.931 39.6649 150.389 38.3751 150.389 36.6366C150.389 35.1225 149.66 34.2813 145.062 33.2158C137.267 31.3652 136.089 27.8322 136.089 24.1309C136.089 19.0277 140.127 15.2144 146.969 15.2144C151.679 15.2144 154.82 16.392 157.792 20.2615L152.296 24.4674C150.894 22.2243 149.1 21.327 147.137 21.327C145.062 21.327 143.492 22.1121 143.492 23.9066C143.492 24.9161 143.94 25.8133 147.417 26.7106C155.885 28.8977 157.848 32.0381 157.848 36.4123C157.848 41.7959 152.969 45.8336 146.52 45.8336Z" fill="white"/>
<path d="M120.39 45.8336C115.455 45.8336 111.473 44.1512 108.277 40.7304L113.38 36.0758C115.511 38.4872 117.754 39.6649 120.222 39.6649C122.801 39.6649 124.259 38.3751 124.259 36.6366C124.259 35.1225 123.53 34.2813 118.932 33.2158C111.137 31.3652 109.959 27.8322 109.959 24.1309C109.959 19.0277 113.997 15.2144 120.838 15.2144C125.549 15.2144 128.69 16.392 131.662 20.2615L126.166 24.4674C124.764 22.2243 122.969 21.327 121.007 21.327C118.932 21.327 117.362 22.1121 117.362 23.9066C117.362 24.9161 117.81 25.8133 121.287 26.7106C129.755 28.8977 131.718 32.0381 131.718 36.4123C131.718 41.7959 126.839 45.8336 120.39 45.8336Z" fill="white"/>
<path d="M91.2315 45.8336C82.2028 45.8336 76.1462 38.9919 76.1462 30.5801C76.1462 22.1682 82.4832 15.2144 91.2315 15.2144C99.9799 15.2144 106.036 22.1682 106.036 30.5801C106.036 31.4212 105.98 32.3185 105.812 33.2719H83.9973C84.8385 36.6927 87.4181 39.1041 91.2315 39.1041C94.4841 39.1041 97.0077 37.4217 98.3536 35.1786L104.242 39.6088C101.887 43.254 97.0077 45.8336 91.2315 45.8336ZM83.9973 27.6079H98.4096C97.5685 24.3553 94.8206 21.7195 91.1194 21.7195C87.5303 21.7195 84.8385 24.1309 83.9973 27.6079Z" fill="white"/>
<path d="M68.0106 45.1045C62.2345 45.1045 59.094 42.4127 59.094 36.0758V22.3924H55.0002V15.9433H59.094V10.055L66.6647 9.2699V15.9433H72.8334V22.3924H66.6647V35.6832C66.6647 37.5338 67.562 38.375 69.02 38.375H72.1605V45.1045H68.0106Z" fill="white"/>
</svg>
