<svg width="294" height="50" viewBox="0 0 294 50" fill="none" xmlns="http://www.w3.org/2000/svg">
<path fill-rule="evenodd" clip-rule="evenodd" d="M24.5899 0.615093L42.2851 10.8195C43.7073 11.6397 44.5833 13.1553 44.5833 14.7956V35.2044C44.5833 36.8447 43.7073 38.3603 42.2851 39.1805L24.5899 49.3849C23.9176 49.7726 23.1716 49.977 22.4215 49.9982L22.335 49.9998H22.2484C21.4693 49.9925 20.6916 49.7875 19.9934 49.3849L2.29823 39.1805C0.876081 38.3603 0 36.8447 0 35.2044V14.7956C0 13.1553 0.876081 11.6397 2.29823 10.8195L19.9934 0.615093C21.4156 -0.205031 23.1677 -0.205031 24.5899 0.615093ZM21.3117 7.80802L21.2509 7.84175L7.93701 15.5196C7.29191 15.8916 6.89443 16.5796 6.89443 17.3243V32.6752C6.89443 33.4199 7.29191 34.108 7.93701 34.48L21.2509 42.1578C21.895 42.5292 22.6883 42.5292 23.3324 42.1578L36.6459 34.48C37.291 34.108 37.6884 33.4199 37.6884 32.6753V17.3243C37.6884 16.5796 37.291 15.8916 36.6459 15.5195L23.3324 7.84177C22.7084 7.48191 21.9445 7.47066 21.3117 7.80802ZM22.3422 16.6667C25.1315 16.6667 27.3927 18.8898 27.3927 21.6322C27.3927 23.3537 26.5016 24.8706 25.1482 25.7614V30.5273C25.1482 32.077 23.8919 33.3333 22.3422 33.3333C20.7925 33.3333 19.5362 32.077 19.5362 30.5273V25.7614C18.1827 24.8706 17.2917 23.3537 17.2917 21.6322C17.2917 18.8898 19.5529 16.6667 22.3422 16.6667Z" fill="#010C0F"/>
<path d="M73.6134 40.7841C83.815 40.7841 91.5031 32.8002 91.5031 22.9436C91.5031 13.0377 83.815 5.00452 73.6134 5.00452C63.3625 5.00452 55.625 13.0377 55.625 22.9436C55.625 32.8002 63.3625 40.7841 73.6134 40.7841ZM62.7711 22.9436C62.7711 16.6846 66.9108 11.4113 73.6134 11.4113C80.2666 11.4113 84.3571 16.6846 84.3571 22.9436C84.3571 29.2025 80.2666 34.3773 73.6134 34.3773C66.9108 34.3773 62.7711 29.2025 62.7711 22.9436Z" fill="#010C0F"/>
<path d="M94.9803 50H101.634V37.5806C103.288 39.1944 105.33 40.784 109.716 40.784C116.763 40.784 122.382 34.8208 122.382 27.4283C122.382 20.0358 116.763 13.974 109.716 13.974C105.231 13.974 102.917 15.8392 101.535 17.4238V14.5161H94.9803V50ZM101.436 27.4283C101.436 23.4364 104.246 19.9865 108.632 19.9865C112.87 19.9865 115.729 23.3871 115.729 27.379C115.729 31.2724 112.87 34.7715 108.632 34.7715C104.246 34.7715 101.436 31.4202 101.436 27.4283Z" fill="#010C0F"/>
<path d="M138.13 40.7841C143.207 40.7841 147.494 38.5171 149.564 35.3137L144.389 31.4203C143.207 33.3916 140.989 34.8701 138.13 34.8701C134.779 34.8701 132.512 32.7509 131.773 29.7447H150.944C151.092 28.9069 151.141 28.1183 151.141 27.3791C151.141 19.9866 145.819 13.8755 138.13 13.8755C130.442 13.8755 124.873 19.9866 124.873 27.3791C124.873 34.7715 130.196 40.7841 138.13 40.7841ZM131.773 24.7671C132.512 21.7115 134.878 19.5923 138.032 19.5923C141.285 19.5923 143.699 21.9086 144.439 24.7671H131.773Z" fill="#010C0F"/>
<path d="M154.816 40.1433H161.469V26.0976C161.469 21.6621 163.982 19.7401 166.791 19.7401C170.093 19.7401 172.311 21.6621 172.311 26.0976V40.1433H178.964V24.4713C178.964 18.0152 174.726 13.9247 169.206 13.9247C165.264 13.9247 162.424 15.4591 161.37 17.0295V14.5161H154.816V40.1433Z" fill="#010C0F"/>
<path d="M183.969 40.1434H191.46L193.826 33.5887H208.217L210.582 40.1434H218.073L204.028 5.64514H198.064L183.969 40.1434ZM196.093 27.6254L199.789 18.2123C200.282 16.9803 200.676 15.6003 201.021 14.2697C201.317 15.6003 201.76 16.931 202.253 18.2123L205.95 27.6254H196.093Z" fill="#010C0F"/>
<path d="M230.274 40.7348C234.265 40.7348 237.17 39.2018 237.814 37.5313V40.1434H244.27V14.5161H237.617V28.5618C237.617 32.9973 235.103 34.9193 232.294 34.9193C228.992 34.9193 227.169 32.9973 227.169 28.5618V14.5161H220.515V30.1882C220.515 36.6443 224.754 40.7348 230.274 40.7348Z" fill="#010C0F"/>
<path d="M260.167 40.1433H263.813V34.2293H261.054C259.772 34.2293 258.984 33.4901 258.984 31.8637V20.1836H264.405V14.5161H258.984V8.65137L252.33 9.34133V14.5161H248.733V20.1836H252.33V32.2087C252.33 37.7777 255.09 40.1433 260.167 40.1433Z" fill="#010C0F"/>
<path d="M269.361 40.1433H276.014V26.0976C276.014 21.6621 278.527 19.7401 281.336 19.7401C284.638 19.7401 286.856 21.6621 286.856 26.0976V40.1433H293.509V24.4713C293.509 18.0152 289.271 13.9247 283.751 13.9247C279.907 13.9247 277.506 15.5088 276.014 16.8324V4.16663H269.361V40.1433Z" fill="#010C0F"/>
</svg>
