<svg width="260" height="50" viewBox="0 0 260 50" fill="none" xmlns="http://www.w3.org/2000/svg">
<path fill-rule="evenodd" clip-rule="evenodd" d="M24.59 0.615095L42.2853 10.8196C43.7074 11.6397 44.5835 13.1554 44.5835 14.7956V35.2046C44.5835 36.8448 43.7074 38.3605 42.2853 39.1806L24.59 49.3851C23.9177 49.7728 23.1717 49.9772 22.4216 49.9984L22.335 50H22.2485C21.4693 49.9927 20.6917 49.7877 19.9935 49.3851L2.29824 39.1806C0.876085 38.3605 0 36.8448 0 35.2046V14.7956C0 13.1554 0.876085 11.6397 2.29824 10.8196L19.9935 0.615095C21.4157 -0.205032 23.1678 -0.205032 24.59 0.615095ZM21.3118 7.80805L21.251 7.84178L7.93704 15.5196C7.29194 15.8916 6.89446 16.5797 6.89446 17.3244V32.6754C6.89446 33.4201 7.29194 34.1081 7.93704 34.4801L21.251 42.158C21.8951 42.5294 22.6884 42.5294 23.3325 42.1579L36.646 34.4801C37.2911 34.1081 37.6886 33.4201 37.6886 32.6754V17.3243C37.6886 16.5797 37.2911 15.8916 36.646 15.5196L23.3325 7.8418C22.7085 7.48194 21.9445 7.47069 21.3118 7.80805ZM22.3423 16.6667C25.1316 16.6667 27.3928 18.8899 27.3928 21.6323C27.3928 23.3538 26.5017 24.8707 25.1483 25.7615V30.5274C25.1483 32.0772 23.892 33.3335 22.3423 33.3335C20.7925 33.3335 19.5362 32.0772 19.5362 30.5274V25.7615C18.1828 24.8707 17.2917 23.3538 17.2917 21.6323C17.2917 18.8899 19.5529 16.6667 22.3423 16.6667Z" fill="#010C0F"/>
<path d="M251.594 45.1044V4.16663H259.164V45.1044H251.594Z" fill="#010C0F"/>
<path d="M228.458 45.8335C220.439 45.8335 214.046 39.0479 214.046 30.636C214.046 22.2242 220.439 15.3264 228.458 15.3264C233.506 15.3264 236.141 17.4013 237.711 20.5418V15.9433H245.226V45.1045H237.88V40.3377C236.309 43.6464 233.674 45.8335 228.458 45.8335ZM221.617 30.58C221.617 35.0102 224.869 38.9918 229.692 38.9918C234.683 38.9918 237.88 35.1784 237.88 30.636C237.88 26.0936 234.683 22.1681 229.692 22.1681C224.869 22.1681 221.617 26.0375 221.617 30.58Z" fill="#010C0F"/>
<path d="M196.095 45.1044V15.9432H203.442V21.4951C204.451 17.2891 207.423 14.9899 212.471 15.2703V22.3923H211.405C207.031 22.3923 203.666 25.3085 203.666 30.1873V45.1044H196.095Z" fill="#010C0F"/>
<path d="M176.098 45.8335C167.069 45.8335 161.012 38.9918 161.012 30.5799C161.012 22.1681 167.349 15.2142 176.098 15.2142C184.846 15.2142 190.902 22.1681 190.902 30.5799C190.902 31.4211 190.846 32.3184 190.678 33.2717H168.863C169.705 36.6926 172.284 39.104 176.098 39.104C179.35 39.104 181.874 37.4216 183.22 35.1784L189.108 39.6087C186.753 43.2538 181.874 45.8335 176.098 45.8335ZM168.863 27.6077H183.276C182.435 24.3551 179.687 21.7194 175.985 21.7194C172.396 21.7194 169.705 24.1308 168.863 27.6077Z" fill="#010C0F"/>
<path d="M146.52 45.8335C141.585 45.8335 137.603 44.1511 134.407 40.7303L139.51 36.0757C141.641 38.4871 143.884 39.6648 146.352 39.6648C148.931 39.6648 150.389 38.3749 150.389 36.6365C150.389 35.1223 149.66 34.2812 145.062 33.2157C137.267 31.365 136.089 27.8321 136.089 24.1308C136.089 19.0276 140.127 15.2142 146.969 15.2142C151.679 15.2142 154.82 16.3919 157.792 20.2614L152.296 24.4673C150.894 22.2241 149.1 21.3269 147.137 21.3269C145.062 21.3269 143.492 22.112 143.492 23.9065C143.492 24.9159 143.94 25.8132 147.417 26.7105C155.885 28.8976 157.848 32.038 157.848 36.4122C157.848 41.7958 152.969 45.8335 146.52 45.8335Z" fill="#010C0F"/>
<path d="M120.39 45.8335C115.455 45.8335 111.473 44.1511 108.277 40.7303L113.38 36.0757C115.511 38.4871 117.754 39.6648 120.222 39.6648C122.801 39.6648 124.259 38.3749 124.259 36.6365C124.259 35.1223 123.53 34.2812 118.932 33.2157C111.137 31.365 109.959 27.8321 109.959 24.1308C109.959 19.0276 113.997 15.2142 120.838 15.2142C125.549 15.2142 128.69 16.3919 131.662 20.2614L126.166 24.4673C124.764 22.2241 122.969 21.3269 121.007 21.3269C118.932 21.3269 117.362 22.112 117.362 23.9065C117.362 24.9159 117.81 25.8132 121.287 26.7105C129.755 28.8976 131.718 32.038 131.718 36.4122C131.718 41.7958 126.839 45.8335 120.39 45.8335Z" fill="#010C0F"/>
<path d="M91.2315 45.8335C82.2028 45.8335 76.1462 38.9918 76.1462 30.5799C76.1462 22.1681 82.4832 15.2142 91.2315 15.2142C99.9799 15.2142 106.036 22.1681 106.036 30.5799C106.036 31.4211 105.98 32.3184 105.812 33.2717H83.9973C84.8385 36.6926 87.4181 39.104 91.2315 39.104C94.4841 39.104 97.0077 37.4216 98.3536 35.1784L104.242 39.6087C101.887 43.2538 97.0077 45.8335 91.2315 45.8335ZM83.9973 27.6077H98.4097C97.5685 24.3551 94.8206 21.7194 91.1194 21.7194C87.5303 21.7194 84.8385 24.1308 83.9973 27.6077Z" fill="#010C0F"/>
<path d="M68.0106 45.1045C62.2345 45.1045 59.094 42.4127 59.094 36.0758V22.3924H55.0002V15.9433H59.094V10.055L66.6647 9.2699V15.9433H72.8334V22.3924H66.6647V35.6832C66.6647 37.5338 67.562 38.375 69.02 38.375H72.1605V45.1045H68.0106Z" fill="#010C0F"/>
</svg>
